<svg width="38" height="38" viewBox="0 0 38 38" fill="none" xmlns="http://www.w3.org/2000/svg">
<rect x="0.5" y="0.5" width="37" height="37" rx="18.5" fill="#6D8434"/>
<rect x="0.5" y="0.5" width="37" height="37" rx="18.5" stroke="black"/>
<path d="M14.1004 12.7C13.9147 12.7 13.7367 12.7737 13.6054 12.905C13.4741 13.0363 13.4004 13.2143 13.4004 13.4C13.4004 13.5856 13.4741 13.7637 13.6054 13.8949C13.7367 14.0262 13.9147 14.1 14.1004 14.1H14.9544L15.1679 14.9554C15.17 14.9652 15.1723 14.975 15.1749 14.9848L16.1255 18.7858L15.5004 19.4102C14.6184 20.2922 15.2428 21.8 16.4902 21.8H22.5004C22.686 21.8 22.8641 21.7262 22.9954 21.5949C23.1266 21.4636 23.2004 21.2856 23.2004 21.1C23.2004 20.9143 23.1266 20.7363 22.9954 20.605C22.8641 20.4737 22.686 20.4 22.5004 20.4H16.4902L17.1902 19.7H21.8004C21.9304 19.6999 22.0577 19.6636 22.1683 19.5953C22.2788 19.5269 22.3681 19.4291 22.4262 19.3128L24.5262 15.1129C24.5795 15.0062 24.6047 14.8876 24.5993 14.7685C24.5939 14.6493 24.5582 14.5335 24.4955 14.432C24.4328 14.3306 24.3453 14.2468 24.2411 14.1887C24.1369 14.1306 24.0197 14.1 23.9004 14.1H16.3964L16.1794 13.2299C16.1415 13.0785 16.0541 12.9441 15.931 12.8481C15.808 12.7521 15.6564 12.7 15.5004 12.7H14.1004ZM23.2004 23.5499C23.2004 23.8284 23.0898 24.0955 22.8929 24.2924C22.6959 24.4893 22.4289 24.5999 22.1504 24.5999C21.8719 24.5999 21.6048 24.4893 21.4079 24.2924C21.211 24.0955 21.1004 23.8284 21.1004 23.5499C21.1004 23.2715 21.211 23.0044 21.4079 22.8075C21.6048 22.6106 21.8719 22.5 22.1504 22.5C22.4289 22.5 22.6959 22.6106 22.8929 22.8075C23.0898 23.0044 23.2004 23.2715 23.2004 23.5499ZM16.5504 24.5999C16.8289 24.5999 17.0959 24.4893 17.2929 24.2924C17.4898 24.0955 17.6004 23.8284 17.6004 23.5499C17.6004 23.2715 17.4898 23.0044 17.2929 22.8075C17.0959 22.6106 16.8289 22.5 16.5504 22.5C16.2719 22.5 16.0048 22.6106 15.8079 22.8075C15.611 23.0044 15.5004 23.2715 15.5004 23.5499C15.5004 23.8284 15.611 24.0955 15.8079 24.2924C16.0048 24.4893 16.2719 24.5999 16.5504 24.5999Z" fill="#E8E8E2"/>
</svg>
