<svg width="154" height="28" viewBox="0 0 154 28" fill="block" xmlns="http://www.w3.org/2000/svg">
<circle cx="14" cy="14" r="14" fill="#6D8434"/>
<path d="M14.7433 8.31191C14.5117 7.96 14.2004 7.66765 13.8347 7.45858C12.8293 6.88191 11.534 6.98324 10.3387 7.65258C8.11935 8.89591 6.66602 11.2332 6.66602 13.9999C6.66602 17.6932 9.33935 20.6752 12.8307 21.2399C13.212 21.3012 13.602 21.3332 13.9993 21.3332C14.9681 21.3367 15.9279 21.1474 16.8229 20.7766C17.7178 20.4057 18.5301 19.8606 19.2125 19.1729C19.8949 18.4852 20.4338 17.6688 20.7977 16.771C21.1617 15.8732 21.3436 14.912 21.3327 13.9432C21.3173 12.6552 20.8007 11.0746 19.984 9.81124C19.1707 8.55258 17.92 7.40591 16.366 7.42058C15.6073 7.42191 15.0893 7.83924 14.7433 8.31258V8.31191ZM19.18 11.0752C18.9016 11.0305 18.6184 11.0231 18.338 11.0532L17.5647 9.75324L16.4193 10.4332L17.014 11.4332C16.7652 11.5503 16.5276 11.6898 16.304 11.8499C16.3001 11.837 16.2961 11.8241 16.292 11.8112C16.114 11.2712 15.77 10.8279 15.3113 10.3872L15.314 10.3739C15.36 10.1586 15.4333 9.88058 15.5433 9.61058C15.792 8.99991 16.0807 8.75258 16.37 8.75258H16.3773C17.238 8.74324 18.1347 9.40391 18.8647 10.5332C18.978 10.7086 19.0833 10.8892 19.1807 11.0746L19.18 11.0752ZM15.0727 13.0732C14.8527 13.0786 14.6267 13.1032 14.406 13.1512C14.2261 12.85 13.9849 12.59 13.698 12.3879C13.1713 12.0179 12.45 11.8346 11.67 12.1259C11.5986 12.0847 11.5265 12.0445 11.454 12.0052L13.6093 9.89258L12.676 8.94058L10.1193 11.4466C9.57935 11.2899 9.07468 11.2339 8.62135 11.2966C9.14304 10.2494 9.96919 9.38442 10.9913 8.81524C11.9007 8.30591 12.6827 8.33391 13.172 8.61458C13.6387 8.88191 14.026 9.48858 13.9287 10.5726L13.8987 10.9079L14.1507 11.1312C14.6987 11.6159 14.9267 11.9292 15.0253 12.2286C15.0947 12.4386 15.1173 12.6926 15.0727 13.0732ZM13.1993 13.7432C12.63 14.2199 12.248 14.8886 12.026 15.6112L10.0433 13.4346L9.05735 14.3332L11.7827 17.3252C11.7793 18.1199 11.8813 18.9332 12.0293 19.6686C10.8494 19.2635 9.82608 18.4988 9.10322 17.482C8.38036 16.4652 7.99432 15.2475 7.99935 13.9999C7.99935 13.3066 8.19202 12.9286 8.41868 12.7632C8.63268 12.6059 9.10268 12.4772 10.0653 12.8326C10.4133 12.9612 10.816 13.1586 11.2767 13.4452L11.6113 13.6532L11.9553 13.4599C12.3707 13.2266 12.688 13.3092 12.9313 13.4799C13.038 13.5546 13.1293 13.6479 13.1993 13.7432ZM14.376 19.9879L19.2373 14.6299L18.25 13.7339L16.2953 15.8879L16.3 15.2119L14.9667 15.2026L14.9513 17.3692L13.296 19.1939C13.1707 18.5132 13.096 17.7819 13.12 17.0959C13.1627 15.9259 13.63 14.9646 14.3213 14.5839C14.608 14.4259 15.114 14.3639 15.514 14.4346L16.1073 14.5379L16.2707 13.9586C16.356 13.6566 16.582 13.3332 16.9353 13.0452C17.2938 12.7555 17.711 12.5471 18.158 12.4346C18.692 12.3039 19.1474 12.3719 19.4473 12.5786C19.7093 12.7586 19.9727 13.1266 19.9973 13.8812V13.8932L19.9993 13.9999C20.006 15.5279 19.4268 17.0004 18.3807 18.1143C17.3347 19.2282 15.9015 19.8987 14.376 19.9879Z" fill="#E8E8E2"/>
<path d="M36.54 19.28C37.422 19.172 37.908 18.776 37.908 18.074V10.748C37.908 10.046 37.422 9.632 36.54 9.542V8.822H45.684C45.846 8.822 45.918 8.876 45.936 9.002C45.99 9.542 46.026 10.082 46.314 11.396H45.864C45.234 10.298 44.694 9.722 43.632 9.722H42.102C41.292 9.722 40.95 10.172 40.95 10.892V12.782C40.95 13.502 41.292 13.898 42.102 13.898H42.822C44.28 13.898 44.55 13.556 44.694 12.746H45.09V15.95H44.694C44.55 15.194 44.28 14.816 42.822 14.816H42.102C41.292 14.816 40.95 15.212 40.95 15.932V18.074C40.95 18.776 41.436 19.172 42.498 19.28V20H36.54V19.28ZM50.8569 20.108C48.6429 20.108 46.3929 18.776 46.3929 15.86C46.3929 12.962 48.6429 11.72 50.8029 11.72C53.0349 11.72 55.2669 13.052 55.2669 15.968C55.2669 18.866 53.0349 20.108 50.8569 20.108ZM49.2729 15.068C49.2729 17.3 50.0109 19.28 51.1629 19.28C51.8649 19.28 52.3869 18.578 52.3869 16.724C52.3869 14.51 51.6849 12.53 50.4969 12.53C49.7769 12.53 49.2729 13.25 49.2729 15.068ZM60.534 20.108C58.32 20.108 56.07 18.776 56.07 15.86C56.07 12.962 58.32 11.72 60.48 11.72C62.712 11.72 64.944 13.052 64.944 15.968C64.944 18.866 62.712 20.108 60.534 20.108ZM58.95 15.068C58.95 17.3 59.688 19.28 60.84 19.28C61.542 19.28 62.064 18.578 62.064 16.724C62.064 14.51 61.362 12.53 60.174 12.53C59.454 12.53 58.95 13.25 58.95 15.068ZM69.1851 20.108C67.4931 20.108 65.7471 18.722 65.7471 16.058C65.7471 13.196 67.7091 11.72 69.6171 11.72C71.5971 11.72 72.1191 13.268 72.1191 11.45V10.37C72.1191 9.524 71.6511 9.38 70.9851 9.434V8.732L73.9191 8.246C74.5311 8.156 74.8191 8.426 74.8191 8.966V18.164C74.8191 18.758 75.0531 19.154 75.5751 18.938V19.334C75.3231 19.946 74.6751 20.108 74.1171 20.108C73.5051 20.108 72.7311 19.91 72.5151 19.37C72.3711 19.028 72.2091 18.848 71.9391 18.848C71.5791 18.848 70.8591 20.108 69.1851 20.108ZM68.6451 15.122C68.6451 16.904 69.4371 18.65 70.5891 18.65C71.2911 18.65 72.1191 18.146 72.1191 16.634V15.788C72.1191 13.448 71.0211 12.53 70.1211 12.53C69.2031 12.53 68.6451 13.664 68.6451 15.122ZM79.3533 19.28C80.2353 19.172 80.7213 18.776 80.7213 18.074V10.766C80.7213 10.046 80.2353 9.632 79.3533 9.542V8.822H84.9153C88.4433 8.822 90.1893 9.668 90.1893 11.486C90.1893 12.512 89.5953 13.52 87.5433 13.844C89.8473 14.168 90.8373 15.248 90.8373 16.778C90.8373 18.866 88.9833 20 86.4633 20C85.0233 20 81.9633 19.55 79.3533 20V19.28ZM83.7633 18.344C83.7633 18.812 84.0513 19.028 84.5733 19.028H85.2033C86.5713 19.028 87.5973 18.506 87.5973 16.76C87.5973 15.068 86.5533 14.33 84.5733 14.33C84.1053 14.33 83.7633 14.69 83.7633 15.41V18.344ZM83.7633 12.386C83.7633 13.106 84.1053 13.466 84.9153 13.466H85.3833C86.6253 13.466 86.9493 12.494 86.9493 11.666C86.9493 10.406 86.2653 9.704 85.0953 9.704H84.9153C84.1053 9.704 83.7633 10.082 83.7633 10.802V12.386ZM96.1135 20.108C93.8995 20.108 91.6495 18.776 91.6495 15.86C91.6495 12.962 93.8995 11.72 96.0595 11.72C98.2915 11.72 100.524 13.052 100.524 15.968C100.524 18.866 98.2915 20.108 96.1135 20.108ZM94.5295 15.068C94.5295 17.3 95.2675 19.28 96.4195 19.28C97.1215 19.28 97.6435 18.578 97.6435 16.724C97.6435 14.51 96.9415 12.53 95.7535 12.53C95.0335 12.53 94.5295 13.25 94.5295 15.068ZM104.436 20.108C103.176 20.108 101.808 19.586 101.808 16.76V13.898C101.808 13.07 101.34 12.926 100.674 12.944V12.242L103.608 11.756C104.22 11.666 104.508 11.936 104.508 12.476V16.328C104.508 17.588 105.03 18.488 106.002 18.488C106.992 18.488 107.496 17.588 107.496 16.328V13.898C107.496 13.07 107.028 12.926 106.362 12.944V12.242L109.278 11.756C109.908 11.666 110.196 11.936 110.196 12.476V18.164C110.196 18.758 110.43 19.154 110.952 18.938V19.334C110.7 19.946 110.052 20.108 109.44 20.108C108.144 20.108 107.784 19.298 107.694 18.902C107.64 18.65 107.496 18.524 107.37 18.524C107.244 18.524 107.154 18.632 107.064 18.758C106.56 19.442 105.858 20.108 104.436 20.108ZM115.17 20.09C113.514 20.09 112.506 19.172 112.506 17.426V13.484C112.506 12.854 112.362 12.728 111.948 12.728H111.138V12.152C112.632 11.81 113.352 11.126 113.964 10.136C114.108 9.902 114.234 9.83 114.468 9.83H114.792C115.062 9.83 115.224 9.992 115.224 10.262L115.206 11.378C115.206 11.774 115.404 11.882 116.322 11.882H117.492V12.836L116.322 12.764C115.404 12.71 115.206 12.872 115.206 13.52V17.336C115.206 18.326 115.314 18.992 116.196 18.992C116.43 18.992 116.79 18.956 117.132 18.704C117.366 18.992 117.456 19.244 117.222 19.46C116.808 19.82 116.07 20.09 115.17 20.09ZM118.218 19.298C119.046 19.244 119.352 18.974 119.352 18.002V13.88C119.352 13.034 118.884 12.89 118.236 12.944V12.242L121.152 11.756C121.764 11.666 122.052 11.936 122.052 12.476V18.002C122.052 18.974 122.358 19.244 123.168 19.298V20H118.218V19.298ZM118.92 9.488C118.92 8.624 119.64 7.958 120.486 7.958C121.314 7.958 122.016 8.624 122.016 9.488C122.016 10.352 121.314 11.018 120.486 11.018C119.64 11.018 118.92 10.352 118.92 9.488ZM128.543 22.736C129.569 22.664 129.875 22.394 129.875 21.494V19.568C129.875 19.244 129.713 19.136 129.551 19.136C129.461 19.136 129.371 19.172 129.299 19.244C128.939 19.604 128.165 20.108 127.031 20.108C125.177 20.108 123.467 18.74 123.467 16.094C123.467 13.214 125.465 11.72 127.535 11.72C129.335 11.72 130.091 12.818 130.757 12.818C131.387 12.818 131.639 11.738 132.143 11.738C132.467 11.738 132.575 11.918 132.575 12.17V21.494C132.575 22.394 132.881 22.664 133.691 22.736V23.42H128.543V22.736ZM126.365 15.104C126.365 16.886 127.121 18.65 128.381 18.65C129.065 18.65 129.857 18.146 129.875 16.13C129.857 13.43 128.741 12.53 127.841 12.53C126.869 12.53 126.365 13.664 126.365 15.104ZM137.186 20.108C135.926 20.108 134.558 19.586 134.558 16.76V13.898C134.558 13.07 134.09 12.926 133.424 12.944V12.242L136.358 11.756C136.97 11.666 137.258 11.936 137.258 12.476V16.328C137.258 17.588 137.78 18.488 138.752 18.488C139.742 18.488 140.246 17.588 140.246 16.328V13.898C140.246 13.07 139.778 12.926 139.112 12.944V12.242L142.028 11.756C142.658 11.666 142.946 11.936 142.946 12.476V18.164C142.946 18.758 143.18 19.154 143.702 18.938V19.334C143.45 19.946 142.802 20.108 142.19 20.108C140.894 20.108 140.534 19.298 140.444 18.902C140.39 18.65 140.246 18.524 140.12 18.524C139.994 18.524 139.904 18.632 139.814 18.758C139.31 19.442 138.608 20.108 137.186 20.108ZM148.903 20.108C146.653 20.108 144.421 18.812 144.421 15.986C144.421 13.034 146.833 11.72 149.065 11.72C150.973 11.72 152.521 12.674 152.521 14.258C152.521 15.878 150.955 15.968 149.371 16.094L147.967 16.202C147.661 16.22 147.499 16.364 147.499 16.778C147.499 18.11 148.939 18.704 150.127 18.704C150.757 18.704 151.621 18.524 152.269 17.786L152.809 18.272C152.467 18.974 151.009 20.108 148.903 20.108ZM147.373 14.726C147.373 15.248 147.499 15.518 147.967 15.5L148.615 15.428C149.857 15.302 150.109 14.978 150.109 14.276C150.109 13.412 149.749 12.548 148.813 12.548C147.643 12.548 147.373 13.862 147.373 14.726Z" fill="#010101"/>
</svg>
